{"asset":{"generator":"Khronos glTF Spline I/O v0.0.1","version":"2.0"},"scenes":[{"nodes":[0]}],"nodes":[{"name":"","children":[1,2,3,4]},{"name":"Point Light","translation":[292.91796875000006,305.859375,0],"extensions":{"KHR_lights_punctual":{"light":0}}},{"name":"Directional Light","translation":[-443.34765625000006,275.12890625,338.6],"rotation":[-0.41710165977927705,-0.23204827165676487,0.4272100374866513,0.7679006373881548],"extensions":{"KHR_lights_punctual":{"light":1}}},{"name":"Sphere","matrix":[1,0,0,0,0,1,0,0,0,0,1,0,0,0,0,1],"mesh":0},{"name":"Personal Camera","camera":0,"translation":[598.7238835223834,567.5603615654569,565.7707061188813],"rotation":[-0.27987627622284633,0.36466128148393184,0.1159133095426369,0.8804859592662466]}],"cameras":[{"type":"orthographic","orthographic":{"xmag":1701,"ymag":1391,"zfar":100000,"znear":-100000}}],"meshes":[{"primitives":[{"attributes":{"POSITION":1,"NORMAL":2,"TEXCOORD_0":3},"indices":0}]}],"buffers":[{"uri":"data:application/octet-stream;base64,","byteLength":727584}],"bufferViews":[{"buffer":0,"byteOffset":0,"byteLength":195072,"target":34963},{"buffer":0,"byteOffset":195072,"byteLength":199692,"target":34962},{"buffer":0,"byteOffset":394764,"byteLength":199692,"target":34962},{"buffer":0,"byteOffset":594456,"byteLength":133128,"target":34962}],"accessors":[{"bufferView":0,"byteOffset":0,"componentType":5123,"count":97536,"type":"SCALAR","min":[0],"max":[16640]},{"bufferView":1,"byteOffset":0,"componentType":5126,"count":16641,"type":"VEC3","min":[-208.33203125,-208.33203125,-208.33203125],"max":[208.33203125,208.33203125,208.33203125]},{"bufferView":2,"byteOffset":0,"componentType":5126,"count":16641,"type":"VEC3","min":[-1,-1,-1],"max":[1,1,1]},{"bufferView":3,"byteOffset":0,"componentType":5126,"count":16641,"type":"VEC2","min":[-0.00390625,0],"max":[1.00390625,1]}],"extensions":{"KHR_lights_punctual":{"lights":[{"type":"point","name":"Point Light","color":[1,0.6850823529411765,0.3411764705882354],"intensity":1.8,"range":2000},{"type":"directional","name":"Directional Light","color":[1,1,1],"intensity":0.7}]}},"extensionsUsed":["KHR_lights_punctual"]}